HIERARCHY
ROOT Hips
{
	OFFSET 0.000000 0.000000 0.000000
	CHANNELS 6 Xposition Yposition Zposition Zrotation Yrotation Xrotation 
	JOINT LHipJoint
	{
		OFFSET 0.000000 0.000000 0.000000
		CHANNELS 3 Zrotation Yrotation Xrotation
		JOINT LeftUpLeg
		{
			OFFSET 1.363060 -1.794630 0.839290
			CHANNELS 3 Zrotation Yrotation Xrotation
			JOINT LeftLeg
			{
				OFFSET 2.448110 -6.726130 0.000000
				CHANNELS 3 Zrotation Yrotation Xrotation
				JOINT LeftFoot
				{
					OFFSET 2.562200 -7.039590 0.000000
					CHANNELS 3 Zrotation Yrotation Xrotation
					JOINT LeftToeBase
					{
						OFFSET 0.157640 -0.433110 2.322550
						CHANNELS 3 Zrotation Yrotation Xrotation
						End Site
						{
							OFFSET 0.000000 0.000000 0.000000
						}
					}
				}
			}
		}
	}
	JOINT RHipJoint
	{
		OFFSET 0.000000 0.000000 0.000000
		CHANNELS 3 Zrotation Yrotation Xrotation
		JOINT RightUpLeg
		{
			OFFSET -1.305520 -1.794630 0.839290
			CHANNELS 3 Zrotation Yrotation Xrotation
			JOINT RightLeg
			{
				OFFSET -2.542530 -6.985550 0.000000
				CHANNELS 3 Zrotation Yrotation Xrotation
				JOINT RightFoot
				{
					OFFSET -2.568260 -7.056230 0.000000
					CHANNELS 3 Zrotation Yrotation Xrotation
					JOINT RightToeBase
					{
						OFFSET -0.164730 -0.452590 2.363150
						CHANNELS 3 Zrotation Yrotation Xrotation
						End Site
						{
							OFFSET 0.000000 0.000000 0.000000
						}
					}
				}
			}
		}
	}
}
MOTION
Frames: 28
Frame Time: 0.008333
4.615974 17.059754 3.437798 10.202507 34.161145 17.747522 -11.519122 5.985497 -0.361386 -7.803646 21.015588 -5.737138 -1.751558 1.600646 24.650880 0.597981 0.954134 16.121371 0.167700 0.000000 -86.858000 8.658300 -0.146562 3.768826 13.083805 -2.291447 -32.553278 1.676577 1.768035 8.605507 -5.455537 -19.137197 -15.551093 -179.016001 0.000000 -8.418100
4.676732 17.047824 3.558603 9.794633 33.697276 17.297556 -11.681483 5.958520 -0.318682 -7.082317 20.959934 -6.404678 -1.556747 1.724165 26.830100 0.668576 0.413115 17.514834 -0.090800 0.000000 -87.547400 8.521909 -0.253189 3.439862 13.949457 -3.027937 -33.142984 1.854702 1.433301 11.255725 -5.238007 -17.972006 -16.242907 -178.767900 0.000000 -8.924400
4.731600 17.032246 3.678103 9.401862 33.229094 16.799423 -11.823775 5.913974 -0.309850 -6.350084 20.974059 -7.095536 -1.364768 1.846016 29.160564 0.752730 -0.098736 18.904438 -0.364999 0.000000 -87.339900 8.412710 -0.353533 3.069559 14.799595 -3.898096 -33.680268 2.021566 1.086952 13.920677 -5.000098 -16.756526 -16.977541 -178.528300 -0.000000 -9.533800
4.780318 17.011936 3.796293 9.032548 32.751763 16.267673 -11.940194 5.850271 -0.337954 -5.628095 21.051944 -7.808840 -1.179114 1.966444 31.631030 0.851317 -0.460848 20.208594 -0.598200 -0.000000 -86.231300 8.333387 -0.444805 2.677793 15.597103 -4.842553 -34.141718 2.168435 0.741818 16.534747 -4.755153 -15.545322 -17.738168 -178.307000 0.000000 -10.189500
4.822967 16.985963 3.913167 8.691853 32.261828 15.718483 -12.027323 5.766470 -0.403351 -4.936911 21.180113 -8.552427 -1.001627 2.087583 34.236866 0.963285 -0.543870 21.333887 -0.719200 0.000000 -84.141701 8.283771 -0.524857 2.284105 16.315666 -5.801877 -34.515504 2.290470 0.409337 19.048443 -4.516001 -14.382486 -18.518165 -178.107200 0.000000 -10.835600
4.859786 16.953673 4.028704 8.387480 31.757891 15.169048 -12.083072 5.662966 -0.503378 -4.299674 21.337300 -9.333677 -0.831950 2.212409 36.966975 1.087544 -0.225754 22.200308 -0.654500 -0.000001 -81.193099 8.263258 -0.591730 1.901411 16.939103 -6.737940 -34.806499 2.387296 0.095860 21.444755 -4.290621 -13.287062 -19.324158 -177.927100 0.000000 -11.426100
4.891269 16.914745 4.142763 8.122511 31.238915 14.634773 -12.108153 5.540363 -0.633356 -3.736177 21.497214 -10.164552 -0.668074 2.344203 39.810385 1.223840 0.583591 22.736183 -0.346901 -0.000000 -77.513600 8.269291 -0.644201 1.540756 17.459877 -7.611389 -35.024520 2.460073 -0.194682 23.717858 -4.086441 -12.276333 -20.166011 -177.762700 0.000000 -11.931800
4.918074 16.869272 4.255123 7.895528 30.704350 14.129784 -12.105899 5.399333 -0.786903 -3.261645 21.630080 -11.059638 -0.507267 2.485730 42.753039 1.373416 1.923733 22.884058 0.225400 0.000001 -73.226700 8.297604 -0.681906 1.210884 17.879369 -8.382682 -35.182264 2.510635 -0.460566 25.870552 -3.910417 -11.368207 -21.054027 -177.608400 0.000000 -12.346000
4.940963 16.817723 4.365487 7.702700 30.153874 13.665325 -12.080840 5.240562 -0.955934 -2.888592 21.701208 -12.028631 -0.346702 2.637972 45.766939 1.539802 3.780605 22.619910 1.042600 -0.000000 -68.647400 8.343721 -0.704745 0.916562 18.204634 -9.019554 -35.294148 2.541207 -0.702345 27.913642 -3.767523 -10.576289 -21.997200 -177.457400 0.000000 -12.685100
4.960847 16.761005 4.473569 7.532329 29.586701 13.250053 -12.040417 5.064680 -1.131772 -2.618413 21.678553 -13.087191 -0.184677 2.801642 48.830296 1.725273 6.068730 21.926959 2.033800 -0.000000 -63.830101 8.400332 -0.714284 0.663144 18.453034 -9.481670 -35.370100 2.553258 -0.920329 29.851119 -3.663891 -9.923819 -22.996886 -177.301601 -0.000000 -12.982600
4.978486 16.700391 4.579015 7.374544 29.002144 12.889834 -11.991061 4.872655 -1.305019 -2.451417 21.527236 -14.239694 -0.019871 2.975189 51.904567 1.932131 8.664026 20.839223 3.100600 -0.000000 -59.054100 8.461953 -0.711578 0.451313 18.641514 -9.743499 -35.419765 2.548201 -1.116555 31.691931 -3.602410 -9.425015 -24.050385 -177.132800 0.000000 -13.285000
4.994719 16.637360 4.681497 7.212830 28.399551 12.587553 -11.940968 4.665545 -1.466792 -2.374312 21.220996 -15.495383 0.148112 3.157350 54.960249 2.157698 11.400472 19.396056 4.124100 0.000000 -54.348400 8.520715 -0.699359 0.282776 18.795888 -9.776133 -35.447333 2.526827 -1.292059 33.434545 -3.586302 -9.099607 -25.144747 -176.941200 0.000000 -13.638000
5.010274 16.573588 4.780774 7.032012 27.778327 12.345296 -11.896593 4.443967 -1.607359 -2.370822 20.732334 -16.854967 0.319846 3.344544 57.955974 2.397665 14.120201 17.696182 5.006699 0.000000 -50.048200 8.570246 -0.679796 0.157205 18.939873 -9.561159 -35.454783 2.489801 -1.447950 35.073665 -3.616594 -8.960989 -26.260725 -176.717700 0.000000 -14.076700
5.025509 16.510747 4.876635 6.824323 27.138425 12.156373 -11.862354 4.210324 -1.722215 -2.417747 20.052612 -18.305359 0.495560 3.534783 60.862919 2.639326 16.655484 15.795671 5.659200 -0.000000 -45.966200 8.607165 -0.654528 0.067850 19.089891 -9.112185 -35.439004 2.438873 -1.586970 36.612518 -3.688073 -8.998490 -27.375967 -176.458500 0.000000 -14.633500
5.041100 16.450493 4.969120 6.571530 26.479339 12.020713 -11.842992 3.964379 -1.802646 -2.483559 19.169647 -19.844784 0.675209 3.723514 63.643793 2.870974 18.884305 13.807684 6.046800 -0.000001 -42.333900 8.624164 -0.626872 0.015708 19.273318 -8.420483 -35.394993 2.375362 -1.708017 38.026254 -3.799606 -9.217623 -28.458051 -176.158600 -0.000000 -15.301700
5.057232 16.394271 5.058345 6.269797 25.801296 11.929864 -11.838945 3.707875 -1.845298 -2.538989 18.086824 -21.449162 0.858019 3.906784 66.264416 3.077335 20.704859 11.802866 6.159000 0.000000 -39.153800 8.619772 -0.598326 -0.006955 19.501139 -7.520490 -35.312912 2.302578 -1.812399 39.304556 -3.942086 -9.589709 -29.478364 -175.822700 -0.000000 -16.069799
5.073981 16.343333 5.144687 5.919976 25.105033 11.875136 -11.848160 3.443101 -1.847905 -2.557754 16.813746 -23.089322 1.041889 4.080086 68.689087 3.243966 22.047241 9.831389 6.012099 0.000000 -36.344499 8.594530 -0.570059 -0.008281 19.777403 -6.457905 -35.181298 2.224937 -1.900923 40.432346 -4.104513 -10.075412 -30.409792 -175.462200 -0.000000 -16.908500
5.091368 16.298633 5.228748 5.525488 24.390852 11.847830 -11.867157 3.172644 -1.808547 -2.515558 15.365818 -24.734030 1.223122 4.238372 70.880383 3.359994 22.878688 7.939800 5.649400 -0.000000 -33.995500 8.549947 -0.543776 0.003479 20.103840 -5.286232 -34.986942 2.147939 -1.974041 41.392339 -4.274724 -10.626527 -31.229690 -175.094200 -0.000000 -17.773700
5.109185 16.260900 5.311307 5.096238 23.658726 11.840308 -11.890383 2.900595 -1.727217 -2.397366 13.766352 -26.351373 1.396299 4.377171 72.804766 3.417534 23.192758 6.133612 5.116900 -0.000001 -31.978600 8.490083 -0.520990 0.020108 20.473958 -4.066416 -34.718003 2.077717 -2.032266 42.168484 -4.439741 -11.187229 -31.923280 -174.740600 0.000001 -18.614300
5.126880 16.230689 5.393406 4.655635 22.909039 11.847921 -11.908491 2.633020 -1.604907 -2.210248 12.038835 -27.906763 1.554328 4.491221 74.427125 3.414518 23.023166 4.410227 4.470400 -0.000000 -30.194900 8.424760 -0.501435 0.032339 20.863506 -2.870523 -34.366384 2.020285 -2.076660 42.753076 -4.585390 -11.693224 -32.487994 -174.426300 -0.000000 -19.394100
5.144266 16.208250 5.476160 4.212338 22.138918 11.869554 -11.916169 2.373527 -1.441909 -1.950492 10.215591 -29.386721 1.689802 4.577246 75.723548 3.354680 22.434738 2.766927 3.767600 0.000000 -28.590500 8.357347 -0.487916 0.038140 21.266544 -1.741212 -33.927925 1.980725 -2.106576 43.131444 -4.703223 -12.099904 -32.923944 -174.170500 -0.000000 -20.059900
5.160846 16.193690 5.560725 3.784142 21.344534 11.907637 -11.905964 2.126263 -1.239902 -1.633241 8.329936 -30.780888 1.795534 4.632189 76.674501 3.248005 21.527709 1.201007 3.063700 0.000000 -27.083000 8.294939 -0.481225 0.036496 21.663316 -0.719585 -33.404219 1.962820 -2.121552 43.297620 -4.785746 -12.365397 -33.241212 -173.989400 0.000001 -20.584500
5.176273 16.187013 5.648190 3.382269 20.520007 11.967437 -11.872484 1.893080 -1.000974 -1.271953 6.419192 -32.092428 1.866167 4.654397 77.270242 3.109889 20.426376 -0.280643 2.405900 0.000000 -25.626400 8.241689 -0.482511 0.031082 22.040237 0.175364 -32.800725 1.968706 -2.120217 43.245546 -4.829735 -12.465699 -33.452003 -173.891600 0.000000 -20.947000
5.190167 16.188064 5.739598 3.017515 19.657818 12.055979 -11.811242 1.674894 -0.728225 -0.885619 4.521707 -33.329741 1.898869 4.643123 77.508297 2.959373 19.267439 -1.663419 1.828000 0.000000 -24.206800 8.201346 -0.491766 0.027528 22.381260 0.936445 -32.125904 1.998997 -2.100857 42.973981 -4.834112 -12.387318 -33.571330 -173.879900 0.000000 -21.152900
5.202237 16.196696 5.835714 2.694984 18.750300 12.179883 -11.719781 1.470727 -0.425916 -0.489355 2.676536 -34.506391 1.894038 4.598654 77.394280 2.816273 18.181881 -2.929360 1.347100 -0.000000 -22.844000 8.175203 -0.508800 0.033830 22.675684 1.573877 -31.388160 2.052875 -2.061315 42.481005 -4.800656 -12.132420 -33.610663 -173.950900 0.000000 -21.209300
5.212346 16.212727 5.937191 2.414986 17.790666 12.344199 -11.597212 1.278798 -0.099546 -0.095913 0.920910 -35.634486 1.854835 4.521843 76.938430 2.698199 17.278965 -4.063635 0.964200 0.000000 -21.572500 8.163130 -0.533322 0.058635 22.916249 2.108670 -30.593090 2.128598 -1.999336 41.763745 -4.732540 -11.713493 -33.576396 -174.098200 -0.000000 -21.136200
5.220217 16.235984 6.044418 2.179553 16.773818 12.551337 -11.443238 1.097890 0.244268 0.278593 -0.713255 -36.719779 1.785922 4.413711 76.151873 2.618559 16.636730 -5.060949 0.668000 0.000000 -20.414400 8.165719 -0.563983 0.109386 23.092359 2.564240 -29.744072 2.223317 -1.912975 40.822594 -4.632927 -11.148031 -33.470957 -174.313100 -0.000001 -20.965000
5.225590 16.266309 6.157624 1.989216 15.697125 12.801001 -11.258216 0.927257 0.597576 0.618452 -2.199305 -37.761171 1.692541 4.275569 75.045350 2.585427 16.295667 -5.926619 0.441200 -0.000001 -19.368300 8.183688 -0.598940 0.192266 23.194643 2.968039 -28.840682 2.333215 -1.800533 39.657486 -4.505161 -10.459870 -33.289485 -174.586200 -0.000000 -20.725100
